<svg xmlns="http://www.w3.org/2000/svg" width="266" height="67" viewBox="0 0 266 67"><path fill="#fff" d="M63.40 35.10L63.40 35.10Q63.40 42.90 61.20 48.85Q59 54.80 55.10 58.75Q51.20 62.70 45.90 64.75Q40.60 66.80 34.40 66.80L34.40 66.80Q28.20 66.80 22.90 64.75Q17.60 62.70 13.70 58.75Q9.80 54.80 7.60 48.85Q5.40 42.90 5.40 35.10L5.40 35.10Q5.40 27.30 7.65 21.40Q9.90 15.50 13.80 11.50Q17.70 7.50 23 5.45Q28.30 3.40 34.40 3.40L34.40 3.40Q40.50 3.40 45.80 5.45Q51.10 7.50 55 11.50Q58.90 15.50 61.15 21.40Q63.40 27.30 63.40 35.10ZM55.10 35.10L55.10 35.10Q55.10 23.10 49.45 16.70Q43.80 10.30 34.40 10.30L34.40 10.30Q29.70 10.30 25.90 11.95Q22.10 13.60 19.40 16.75Q16.70 19.90 15.25 24.50Q13.80 29.10 13.80 35.10L13.80 35.10Q13.80 47.10 19.40 53.50Q25 59.90 34.40 59.90L34.40 59.90Q43.90 59.90 49.50 53.50Q55.10 47.10 55.10 35.10ZM86 65.30L86 65.30Q85.50 65.50 84.50 65.75Q83.50 66 82.30 66L82.30 66Q77.90 66 77.90 62.30L77.90 62.30L77.90 4.90Q78.40 4.70 79.45 4.45Q80.50 4.20 81.70 4.20L81.70 4.20Q86 4.20 86 7.90L86 7.90L86 65.30ZM151.60 65.30L151.60 65.30Q151 65.50 150 65.75Q149 66 147.80 66L147.80 66Q143.40 66 143.40 62.30L143.40 62.30L143.40 38.10L112.20 38.10L112.20 65.30Q111.60 65.50 110.60 65.75Q109.60 66 108.40 66L108.40 66Q104.00 66 104.00 62.30L104.00 62.30L104.00 4.90Q104.50 4.70 105.55 4.45Q106.60 4.20 107.80 4.20L107.80 4.20Q112.20 4.20 112.20 7.90L112.20 7.90L112.20 31.30L143.40 31.30L143.40 4.90Q143.90 4.70 144.95 4.45Q146 4.20 147.20 4.20L147.20 4.20Q151.60 4.20 151.60 7.90L151.60 7.90L151.60 65.30ZM168 48.60L168 19.50Q168.50 19.30 169.55 19.05Q170.60 18.80 171.80 18.80L171.80 18.80Q176 18.80 176 22.50L176 22.50L176 48.20Q176 54.70 179.40 57.45Q182.80 60.20 188.80 60.20L188.80 60.20Q192.80 60.20 195.60 59.35Q198.40 58.50 200 57.60L200 57.60L200 19.50Q200.50 19.30 201.55 19.05Q202.60 18.80 203.70 18.80L203.70 18.80Q208 18.80 208 22.50L208 22.50L208 57.30Q208 59.40 207.45 60.65Q206.90 61.90 204.80 63.10L204.80 63.10Q202.50 64.40 198.45 65.60Q194.40 66.80 188.70 66.80L188.70 66.80Q178.70 66.80 173.35 62.40Q168 58 168 48.60L168 48.60ZM243.60 18L243.60 18Q248.20 18 252.20 19.50Q256.20 21 259.15 24Q262.10 27 263.75 31.60Q265.40 36.20 265.40 42.40L265.40 42.40Q265.40 48.70 263.70 53.30Q262 57.90 258.95 60.90Q255.90 63.90 251.60 65.35Q247.30 66.80 242.20 66.80L242.20 66.80Q237.30 66.80 233.35 65.65Q229.40 64.50 226.90 63L226.90 63Q224.80 61.70 224 60.45Q223.20 59.20 223.20 57.10L223.20 57.10L223.20 0.70Q223.70 0.50 224.75 0.25Q225.80 0 227 0L227 0Q231.20 0 231.20 3.60L231.20 3.60L231.20 21.50Q233.40 20.10 236.45 19.05Q239.50 18 243.60 18ZM242.40 24.60L242.40 24.60Q238.90 24.60 236.05 25.85Q233.20 27.10 231.20 28.80L231.20 28.80L231.20 57.10Q232.70 58.20 235.55 59.20Q238.40 60.20 242.20 60.20L242.20 60.20Q245.60 60.20 248.35 59.15Q251.10 58.10 253.10 55.90Q255.10 53.70 256.20 50.35Q257.30 47 257.30 42.40L257.30 42.40Q257.30 37.80 256.20 34.40Q255.10 31 253.10 28.85Q251.10 26.70 248.35 25.65Q245.60 24.60 242.40 24.60Z"></path></svg>